<?xml version="1.0" standalone="no"?>
<!DOCTYPE svg PUBLIC "-//W3C//DTD SVG 20010904//EN"
 "http://www.w3.org/TR/2001/REC-SVG-20010904/DTD/svg10.dtd">
<svg version="1.0" xmlns="http://www.w3.org/2000/svg"
 width="1024.000000pt" height="1024.000000pt" viewBox="0 0 1024.000000 1024.000000"
 preserveAspectRatio="xMidYMid meet">
<metadata>
Created by potrace 1.16, written by Peter Selinger 2001-2019
</metadata>
<g transform="translate(0.000000,1024.000000) scale(0.100000,-0.100000)"
fill="#000000" stroke="none">
<path d="M0 5120 l0 -5120 5120 0 5120 0 0 5120 0 5120 -5120 0 -5120 0 0
-5120z m4694 2830 c38 -14 58 -52 58 -111 -1 -109 -73 -199 -296 -372 -407
-314 -487 -423 -522 -710 -6 -50 -28 -72 -46 -46 -16 24 -2 274 22 369 63 256
178 478 332 641 165 174 350 268 452 229z m1785 -21 c237 -38 415 -161 510
-353 51 -100 69 -170 81 -312 28 -314 -94 -726 -310 -1052 -76 -115 -105 -150
-208 -256 -179 -182 -360 -278 -553 -293 -205 -16 -363 64 -418 211 -48 130
-10 331 84 435 29 32 44 41 70 41 50 0 71 -25 124 -147 27 -61 58 -125 70
-142 49 -69 144 -118 246 -128 59 -5 70 -3 132 27 217 107 496 551 598 955
103 407 16 713 -237 837 -114 56 -198 72 -368 72 -152 -1 -157 -1 -264 -37
-217 -73 -383 -185 -601 -402 -192 -191 -294 -317 -472 -585 -289 -436 -559
-1051 -703 -1604 -109 -422 -147 -738 -136 -1130 22 -759 151 -1231 403 -1466
153 -143 325 -171 589 -94 424 122 907 570 1182 1094 118 226 167 392 166 570
-1 98 -5 126 -28 189 -42 118 -33 183 30 217 42 23 98 11 126 -27 25 -34 39
-136 32 -234 -54 -759 -802 -1713 -1539 -1963 -379 -129 -677 -77 -931 161
-240 225 -393 538 -478 977 -36 181 -48 343 -48 615 2 1059 321 2019 916 2755
445 550 1019 945 1541 1061 92 20 294 25 394 8z m-3092 -756 c24 -49 36 -61
83 -85 67 -33 71 -55 15 -75 -52 -18 -79 -45 -105 -105 -12 -27 -26 -48 -33
-45 -7 2 -25 29 -41 60 -25 51 -35 60 -87 84 -33 15 -59 33 -59 40 0 7 24 24
53 37 48 21 97 65 97 87 0 22 21 59 34 59 8 0 27 -26 43 -57z m263 -598 c33
-84 82 -131 166 -161 82 -29 80 -49 -10 -85 -90 -36 -129 -75 -158 -157 -12
-35 -28 -67 -35 -69 -17 -7 -43 15 -43 34 0 28 -51 117 -82 143 -16 14 -57 36
-91 50 -82 34 -84 55 -5 86 99 38 127 68 182 197 23 55 43 45 76 -38z m3213
-1629 c24 -51 34 -60 82 -82 68 -31 73 -55 16 -74 -52 -17 -85 -50 -106 -104
-22 -58 -48 -62 -65 -10 -17 51 -62 98 -109 114 -59 19 -54 43 16 77 51 25 61
35 86 86 15 32 33 57 40 54 7 -2 24 -29 40 -61z"/>
</g>
</svg>
